<mxfile host="app.diagrams.net" agent="Mozilla/5.0 (Windows NT 10.0; Win64; x64) AppleWebKit/537.36 (KHTML, like Gecko) Chrome/128.0.0.0 Safari/537.36" version="24.7.17">
  <diagram id="C5RBs43oDa-KdzZeNtuy" name="Page-1">
    <mxGraphModel dx="2049" dy="1114" grid="1" gridSize="10" guides="1" tooltips="1" connect="1" arrows="1" fold="1" page="1" pageScale="1" pageWidth="827" pageHeight="1169" math="0" shadow="0">
      <root>
        <mxCell id="WIyWlLk6GJQsqaUBKTNV-0" />
        <mxCell id="WIyWlLk6GJQsqaUBKTNV-1" parent="WIyWlLk6GJQsqaUBKTNV-0" />
        <mxCell id="xGRWOPdD0uSBS9Aoq_qe-6" style="edgeStyle=orthogonalEdgeStyle;rounded=0;orthogonalLoop=1;jettySize=auto;html=1;exitX=0;exitY=0.5;exitDx=0;exitDy=0;entryX=1;entryY=0.5;entryDx=0;entryDy=0;" edge="1" parent="WIyWlLk6GJQsqaUBKTNV-1" source="xGRWOPdD0uSBS9Aoq_qe-1" target="xGRWOPdD0uSBS9Aoq_qe-11">
          <mxGeometry relative="1" as="geometry">
            <mxPoint x="170" y="240" as="targetPoint" />
          </mxGeometry>
        </mxCell>
        <mxCell id="xGRWOPdD0uSBS9Aoq_qe-9" style="edgeStyle=orthogonalEdgeStyle;rounded=0;orthogonalLoop=1;jettySize=auto;html=1;" edge="1" parent="WIyWlLk6GJQsqaUBKTNV-1" source="xGRWOPdD0uSBS9Aoq_qe-1">
          <mxGeometry relative="1" as="geometry">
            <mxPoint x="250" y="320" as="targetPoint" />
          </mxGeometry>
        </mxCell>
        <mxCell id="xGRWOPdD0uSBS9Aoq_qe-1" value="while(lives &amp;gt; 0)" style="rhombus;whiteSpace=wrap;html=1;" vertex="1" parent="WIyWlLk6GJQsqaUBKTNV-1">
          <mxGeometry x="200" y="180" width="100" height="100" as="geometry" />
        </mxCell>
        <mxCell id="xGRWOPdD0uSBS9Aoq_qe-4" style="edgeStyle=orthogonalEdgeStyle;rounded=0;orthogonalLoop=1;jettySize=auto;html=1;entryX=0.5;entryY=0;entryDx=0;entryDy=0;exitX=0.5;exitY=1;exitDx=0;exitDy=0;" edge="1" parent="WIyWlLk6GJQsqaUBKTNV-1" source="xGRWOPdD0uSBS9Aoq_qe-12" target="xGRWOPdD0uSBS9Aoq_qe-1">
          <mxGeometry relative="1" as="geometry">
            <mxPoint x="250" y="140" as="sourcePoint" />
          </mxGeometry>
        </mxCell>
        <mxCell id="xGRWOPdD0uSBS9Aoq_qe-8" value="False" style="text;html=1;align=center;verticalAlign=middle;whiteSpace=wrap;rounded=0;" vertex="1" parent="WIyWlLk6GJQsqaUBKTNV-1">
          <mxGeometry x="150" y="200" width="60" height="30" as="geometry" />
        </mxCell>
        <mxCell id="xGRWOPdD0uSBS9Aoq_qe-10" value="True" style="text;html=1;align=center;verticalAlign=middle;whiteSpace=wrap;rounded=0;" vertex="1" parent="WIyWlLk6GJQsqaUBKTNV-1">
          <mxGeometry x="250" y="280" width="60" height="30" as="geometry" />
        </mxCell>
        <mxCell id="xGRWOPdD0uSBS9Aoq_qe-11" value="END" style="rounded=1;whiteSpace=wrap;html=1;" vertex="1" parent="WIyWlLk6GJQsqaUBKTNV-1">
          <mxGeometry x="30" y="200" width="120" height="60" as="geometry" />
        </mxCell>
        <mxCell id="xGRWOPdD0uSBS9Aoq_qe-12" value="START" style="rounded=1;whiteSpace=wrap;html=1;" vertex="1" parent="WIyWlLk6GJQsqaUBKTNV-1">
          <mxGeometry x="190" y="70" width="120" height="60" as="geometry" />
        </mxCell>
        <mxCell id="xGRWOPdD0uSBS9Aoq_qe-18" style="edgeStyle=orthogonalEdgeStyle;rounded=0;orthogonalLoop=1;jettySize=auto;html=1;entryX=0.5;entryY=0;entryDx=0;entryDy=0;" edge="1" parent="WIyWlLk6GJQsqaUBKTNV-1" source="xGRWOPdD0uSBS9Aoq_qe-13" target="xGRWOPdD0uSBS9Aoq_qe-17">
          <mxGeometry relative="1" as="geometry" />
        </mxCell>
        <mxCell id="xGRWOPdD0uSBS9Aoq_qe-13" value="characterList.Dequeue()" style="rounded=0;whiteSpace=wrap;html=1;" vertex="1" parent="WIyWlLk6GJQsqaUBKTNV-1">
          <mxGeometry x="180" y="320" width="140" height="60" as="geometry" />
        </mxCell>
        <mxCell id="xGRWOPdD0uSBS9Aoq_qe-14" value="Persona avanza a la entrada del nightclub" style="text;html=1;align=center;verticalAlign=middle;whiteSpace=wrap;rounded=0;" vertex="1" parent="WIyWlLk6GJQsqaUBKTNV-1">
          <mxGeometry x="50" y="335" width="120" height="30" as="geometry" />
        </mxCell>
        <mxCell id="xGRWOPdD0uSBS9Aoq_qe-16" value="scanned = NFC.Scan()" style="html=1;strokeWidth=2;shape=manualInput;whiteSpace=wrap;rounded=1;size=26;arcSize=11;" vertex="1" parent="WIyWlLk6GJQsqaUBKTNV-1">
          <mxGeometry x="30" y="690" width="100" height="70" as="geometry" />
        </mxCell>
        <mxCell id="xGRWOPdD0uSBS9Aoq_qe-17" value="Begin Timer" style="rounded=0;whiteSpace=wrap;html=1;" vertex="1" parent="WIyWlLk6GJQsqaUBKTNV-1">
          <mxGeometry x="190" y="400" width="120" height="60" as="geometry" />
        </mxCell>
        <mxCell id="xGRWOPdD0uSBS9Aoq_qe-26" style="edgeStyle=orthogonalEdgeStyle;rounded=0;orthogonalLoop=1;jettySize=auto;html=1;entryX=0;entryY=0.5;entryDx=0;entryDy=0;" edge="1" parent="WIyWlLk6GJQsqaUBKTNV-1" source="xGRWOPdD0uSBS9Aoq_qe-20" target="xGRWOPdD0uSBS9Aoq_qe-22">
          <mxGeometry relative="1" as="geometry" />
        </mxCell>
        <mxCell id="xGRWOPdD0uSBS9Aoq_qe-29" style="edgeStyle=orthogonalEdgeStyle;rounded=0;orthogonalLoop=1;jettySize=auto;html=1;" edge="1" parent="WIyWlLk6GJQsqaUBKTNV-1" source="xGRWOPdD0uSBS9Aoq_qe-20">
          <mxGeometry relative="1" as="geometry">
            <mxPoint x="250" y="630" as="targetPoint" />
          </mxGeometry>
        </mxCell>
        <mxCell id="xGRWOPdD0uSBS9Aoq_qe-20" value="while(timer &amp;gt; 0)" style="strokeWidth=2;html=1;shape=mxgraph.flowchart.decision;whiteSpace=wrap;" vertex="1" parent="WIyWlLk6GJQsqaUBKTNV-1">
          <mxGeometry x="200" y="490" width="100" height="100" as="geometry" />
        </mxCell>
        <mxCell id="xGRWOPdD0uSBS9Aoq_qe-23" style="edgeStyle=orthogonalEdgeStyle;rounded=0;orthogonalLoop=1;jettySize=auto;html=1;entryX=0.5;entryY=1;entryDx=0;entryDy=0;" edge="1" parent="WIyWlLk6GJQsqaUBKTNV-1" source="xGRWOPdD0uSBS9Aoq_qe-22" target="xGRWOPdD0uSBS9Aoq_qe-24">
          <mxGeometry relative="1" as="geometry">
            <Array as="points">
              <mxPoint x="440" y="395" />
            </Array>
          </mxGeometry>
        </mxCell>
        <mxCell id="xGRWOPdD0uSBS9Aoq_qe-22" value="lives--" style="rounded=0;whiteSpace=wrap;html=1;" vertex="1" parent="WIyWlLk6GJQsqaUBKTNV-1">
          <mxGeometry x="380" y="510" width="120" height="60" as="geometry" />
        </mxCell>
        <mxCell id="xGRWOPdD0uSBS9Aoq_qe-25" style="edgeStyle=orthogonalEdgeStyle;rounded=0;orthogonalLoop=1;jettySize=auto;html=1;entryX=1;entryY=0.5;entryDx=0;entryDy=0;" edge="1" parent="WIyWlLk6GJQsqaUBKTNV-1" source="xGRWOPdD0uSBS9Aoq_qe-24" target="xGRWOPdD0uSBS9Aoq_qe-1">
          <mxGeometry relative="1" as="geometry">
            <Array as="points">
              <mxPoint x="440" y="230" />
            </Array>
          </mxGeometry>
        </mxCell>
        <mxCell id="xGRWOPdD0uSBS9Aoq_qe-24" value="character Leaves/Dies" style="rounded=0;whiteSpace=wrap;html=1;" vertex="1" parent="WIyWlLk6GJQsqaUBKTNV-1">
          <mxGeometry x="370" y="320" width="140" height="60" as="geometry" />
        </mxCell>
        <mxCell id="xGRWOPdD0uSBS9Aoq_qe-27" style="edgeStyle=orthogonalEdgeStyle;rounded=0;orthogonalLoop=1;jettySize=auto;html=1;entryX=0.5;entryY=0;entryDx=0;entryDy=0;entryPerimeter=0;" edge="1" parent="WIyWlLk6GJQsqaUBKTNV-1" source="xGRWOPdD0uSBS9Aoq_qe-17" target="xGRWOPdD0uSBS9Aoq_qe-20">
          <mxGeometry relative="1" as="geometry" />
        </mxCell>
        <mxCell id="xGRWOPdD0uSBS9Aoq_qe-28" value="True" style="text;html=1;align=center;verticalAlign=middle;whiteSpace=wrap;rounded=0;" vertex="1" parent="WIyWlLk6GJQsqaUBKTNV-1">
          <mxGeometry x="190" y="600" width="60" height="30" as="geometry" />
        </mxCell>
        <mxCell id="xGRWOPdD0uSBS9Aoq_qe-31" value="false" style="text;html=1;align=center;verticalAlign=middle;whiteSpace=wrap;rounded=0;" vertex="1" parent="WIyWlLk6GJQsqaUBKTNV-1">
          <mxGeometry x="300" y="510" width="60" height="30" as="geometry" />
        </mxCell>
        <mxCell id="xGRWOPdD0uSBS9Aoq_qe-35" style="edgeStyle=orthogonalEdgeStyle;rounded=0;orthogonalLoop=1;jettySize=auto;html=1;entryX=0.5;entryY=0;entryDx=0;entryDy=0;" edge="1" parent="WIyWlLk6GJQsqaUBKTNV-1" source="xGRWOPdD0uSBS9Aoq_qe-33" target="xGRWOPdD0uSBS9Aoq_qe-34">
          <mxGeometry relative="1" as="geometry" />
        </mxCell>
        <mxCell id="xGRWOPdD0uSBS9Aoq_qe-33" value="Prompt user to scan" style="rounded=0;whiteSpace=wrap;html=1;" vertex="1" parent="WIyWlLk6GJQsqaUBKTNV-1">
          <mxGeometry x="190" y="630" width="120" height="60" as="geometry" />
        </mxCell>
        <mxCell id="xGRWOPdD0uSBS9Aoq_qe-45" value="" style="edgeStyle=orthogonalEdgeStyle;rounded=0;orthogonalLoop=1;jettySize=auto;html=1;" edge="1" parent="WIyWlLk6GJQsqaUBKTNV-1" source="xGRWOPdD0uSBS9Aoq_qe-34">
          <mxGeometry relative="1" as="geometry">
            <mxPoint x="250.0344827586207" y="820" as="targetPoint" />
          </mxGeometry>
        </mxCell>
        <mxCell id="xGRWOPdD0uSBS9Aoq_qe-34" value="if(scanned)" style="rhombus;whiteSpace=wrap;html=1;" vertex="1" parent="WIyWlLk6GJQsqaUBKTNV-1">
          <mxGeometry x="210" y="710" width="80" height="80" as="geometry" />
        </mxCell>
        <mxCell id="xGRWOPdD0uSBS9Aoq_qe-36" style="edgeStyle=orthogonalEdgeStyle;rounded=0;orthogonalLoop=1;jettySize=auto;html=1;exitX=0.827;exitY=0.032;exitDx=0;exitDy=0;exitPerimeter=0;" edge="1" parent="WIyWlLk6GJQsqaUBKTNV-1" source="xGRWOPdD0uSBS9Aoq_qe-41">
          <mxGeometry relative="1" as="geometry">
            <mxPoint x="210" y="855" as="sourcePoint" />
            <mxPoint x="170" y="645" as="targetPoint" />
            <Array as="points">
              <mxPoint x="170" y="750" />
            </Array>
          </mxGeometry>
        </mxCell>
        <mxCell id="xGRWOPdD0uSBS9Aoq_qe-38" style="edgeStyle=orthogonalEdgeStyle;rounded=0;orthogonalLoop=1;jettySize=auto;html=1;entryX=0.323;entryY=0.188;entryDx=0;entryDy=0;entryPerimeter=0;" edge="1" parent="WIyWlLk6GJQsqaUBKTNV-1" target="xGRWOPdD0uSBS9Aoq_qe-34">
          <mxGeometry relative="1" as="geometry">
            <mxPoint x="130" y="725" as="sourcePoint" />
            <mxPoint x="219.95" y="719.9200000000001" as="targetPoint" />
            <Array as="points" />
          </mxGeometry>
        </mxCell>
        <mxCell id="xGRWOPdD0uSBS9Aoq_qe-41" value="False" style="text;html=1;align=center;verticalAlign=middle;whiteSpace=wrap;rounded=0;" vertex="1" parent="WIyWlLk6GJQsqaUBKTNV-1">
          <mxGeometry x="160" y="750" width="60" height="30" as="geometry" />
        </mxCell>
        <mxCell id="xGRWOPdD0uSBS9Aoq_qe-42" value="timer--" style="rounded=0;whiteSpace=wrap;html=1;" vertex="1" parent="WIyWlLk6GJQsqaUBKTNV-1">
          <mxGeometry x="100" y="585" width="80" height="60" as="geometry" />
        </mxCell>
        <mxCell id="xGRWOPdD0uSBS9Aoq_qe-43" style="edgeStyle=orthogonalEdgeStyle;rounded=0;orthogonalLoop=1;jettySize=auto;html=1;entryX=0;entryY=0.5;entryDx=0;entryDy=0;entryPerimeter=0;" edge="1" parent="WIyWlLk6GJQsqaUBKTNV-1" source="xGRWOPdD0uSBS9Aoq_qe-42" target="xGRWOPdD0uSBS9Aoq_qe-20">
          <mxGeometry relative="1" as="geometry">
            <Array as="points">
              <mxPoint x="140" y="540" />
            </Array>
          </mxGeometry>
        </mxCell>
        <mxCell id="xGRWOPdD0uSBS9Aoq_qe-46" value="True" style="text;html=1;align=center;verticalAlign=middle;whiteSpace=wrap;rounded=0;" vertex="1" parent="WIyWlLk6GJQsqaUBKTNV-1">
          <mxGeometry x="250" y="790" width="60" height="30" as="geometry" />
        </mxCell>
        <mxCell id="xGRWOPdD0uSBS9Aoq_qe-49" value="" style="edgeStyle=orthogonalEdgeStyle;rounded=0;orthogonalLoop=1;jettySize=auto;html=1;" edge="1" parent="WIyWlLk6GJQsqaUBKTNV-1" source="xGRWOPdD0uSBS9Aoq_qe-47" target="xGRWOPdD0uSBS9Aoq_qe-48">
          <mxGeometry relative="1" as="geometry" />
        </mxCell>
        <mxCell id="xGRWOPdD0uSBS9Aoq_qe-54" style="edgeStyle=orthogonalEdgeStyle;rounded=0;orthogonalLoop=1;jettySize=auto;html=1;" edge="1" parent="WIyWlLk6GJQsqaUBKTNV-1" source="xGRWOPdD0uSBS9Aoq_qe-47">
          <mxGeometry relative="1" as="geometry">
            <mxPoint x="350" y="885" as="targetPoint" />
          </mxGeometry>
        </mxCell>
        <mxCell id="xGRWOPdD0uSBS9Aoq_qe-47" value="if(scanned.isVampire)" style="rhombus;whiteSpace=wrap;html=1;" vertex="1" parent="WIyWlLk6GJQsqaUBKTNV-1">
          <mxGeometry x="185" y="820" width="130" height="130" as="geometry" />
        </mxCell>
        <mxCell id="xGRWOPdD0uSBS9Aoq_qe-50" value="Vampiro! matalo!" style="text;html=1;align=center;verticalAlign=middle;whiteSpace=wrap;rounded=0;" vertex="1" parent="WIyWlLk6GJQsqaUBKTNV-1">
          <mxGeometry x="250" y="950" width="60" height="30" as="geometry" />
        </mxCell>
        <mxCell id="xGRWOPdD0uSBS9Aoq_qe-73" style="edgeStyle=orthogonalEdgeStyle;rounded=0;orthogonalLoop=1;jettySize=auto;html=1;entryX=0.5;entryY=1;entryDx=0;entryDy=0;" edge="1" parent="WIyWlLk6GJQsqaUBKTNV-1" source="xGRWOPdD0uSBS9Aoq_qe-48" target="xGRWOPdD0uSBS9Aoq_qe-61">
          <mxGeometry relative="1" as="geometry" />
        </mxCell>
        <mxCell id="xGRWOPdD0uSBS9Aoq_qe-48" value="if(stabbed)" style="rhombus;whiteSpace=wrap;html=1;" vertex="1" parent="WIyWlLk6GJQsqaUBKTNV-1">
          <mxGeometry x="210" y="970" width="80" height="80" as="geometry" />
        </mxCell>
        <mxCell id="xGRWOPdD0uSBS9Aoq_qe-51" value="true" style="text;html=1;align=center;verticalAlign=middle;whiteSpace=wrap;rounded=0;" vertex="1" parent="WIyWlLk6GJQsqaUBKTNV-1">
          <mxGeometry x="190" y="950" width="60" height="30" as="geometry" />
        </mxCell>
        <mxCell id="xGRWOPdD0uSBS9Aoq_qe-57" style="edgeStyle=orthogonalEdgeStyle;rounded=0;orthogonalLoop=1;jettySize=auto;html=1;entryX=0.5;entryY=1;entryDx=0;entryDy=0;" edge="1" parent="WIyWlLk6GJQsqaUBKTNV-1" source="xGRWOPdD0uSBS9Aoq_qe-52" target="xGRWOPdD0uSBS9Aoq_qe-55">
          <mxGeometry relative="1" as="geometry">
            <Array as="points">
              <mxPoint x="105" y="1130" />
              <mxPoint x="390" y="1130" />
            </Array>
          </mxGeometry>
        </mxCell>
        <mxCell id="xGRWOPdD0uSBS9Aoq_qe-53" style="edgeStyle=orthogonalEdgeStyle;rounded=0;orthogonalLoop=1;jettySize=auto;html=1;entryX=0;entryY=0.5;entryDx=0;entryDy=0;" edge="1" parent="WIyWlLk6GJQsqaUBKTNV-1" source="xGRWOPdD0uSBS9Aoq_qe-52" target="xGRWOPdD0uSBS9Aoq_qe-48">
          <mxGeometry relative="1" as="geometry" />
        </mxCell>
        <mxCell id="xGRWOPdD0uSBS9Aoq_qe-52" value="stabbed = Piezoelectric.Sense()" style="html=1;strokeWidth=2;shape=manualInput;whiteSpace=wrap;rounded=1;size=26;arcSize=11;" vertex="1" parent="WIyWlLk6GJQsqaUBKTNV-1">
          <mxGeometry x="25" y="975" width="130" height="70" as="geometry" />
        </mxCell>
        <mxCell id="xGRWOPdD0uSBS9Aoq_qe-60" style="edgeStyle=orthogonalEdgeStyle;rounded=0;orthogonalLoop=1;jettySize=auto;html=1;entryX=0.5;entryY=1;entryDx=0;entryDy=0;" edge="1" parent="WIyWlLk6GJQsqaUBKTNV-1" source="xGRWOPdD0uSBS9Aoq_qe-55" target="xGRWOPdD0uSBS9Aoq_qe-61">
          <mxGeometry relative="1" as="geometry">
            <mxPoint x="470" y="885" as="targetPoint" />
            <Array as="points">
              <mxPoint x="470" y="885" />
            </Array>
          </mxGeometry>
        </mxCell>
        <mxCell id="xGRWOPdD0uSBS9Aoq_qe-63" style="edgeStyle=orthogonalEdgeStyle;rounded=0;orthogonalLoop=1;jettySize=auto;html=1;entryX=0;entryY=0.5;entryDx=0;entryDy=0;" edge="1" parent="WIyWlLk6GJQsqaUBKTNV-1" source="xGRWOPdD0uSBS9Aoq_qe-55" target="xGRWOPdD0uSBS9Aoq_qe-61">
          <mxGeometry relative="1" as="geometry">
            <mxPoint x="390" y="780" as="targetPoint" />
          </mxGeometry>
        </mxCell>
        <mxCell id="xGRWOPdD0uSBS9Aoq_qe-55" value="if(stabbed)" style="rhombus;whiteSpace=wrap;html=1;" vertex="1" parent="WIyWlLk6GJQsqaUBKTNV-1">
          <mxGeometry x="350" y="845" width="80" height="80" as="geometry" />
        </mxCell>
        <mxCell id="xGRWOPdD0uSBS9Aoq_qe-56" value="False" style="text;html=1;align=center;verticalAlign=middle;whiteSpace=wrap;rounded=0;" vertex="1" parent="WIyWlLk6GJQsqaUBKTNV-1">
          <mxGeometry x="300" y="850" width="60" height="30" as="geometry" />
        </mxCell>
        <mxCell id="xGRWOPdD0uSBS9Aoq_qe-58" style="edgeStyle=orthogonalEdgeStyle;rounded=0;orthogonalLoop=1;jettySize=auto;html=1;exitX=0.5;exitY=1;exitDx=0;exitDy=0;" edge="1" parent="WIyWlLk6GJQsqaUBKTNV-1" source="xGRWOPdD0uSBS9Aoq_qe-48">
          <mxGeometry relative="1" as="geometry">
            <mxPoint x="170" y="643" as="targetPoint" />
            <Array as="points">
              <mxPoint x="250" y="1070" />
              <mxPoint x="170" y="1070" />
            </Array>
          </mxGeometry>
        </mxCell>
        <mxCell id="xGRWOPdD0uSBS9Aoq_qe-59" value="False" style="text;html=1;align=center;verticalAlign=middle;whiteSpace=wrap;rounded=0;" vertex="1" parent="WIyWlLk6GJQsqaUBKTNV-1">
          <mxGeometry x="180" y="1040" width="60" height="30" as="geometry" />
        </mxCell>
        <mxCell id="xGRWOPdD0uSBS9Aoq_qe-65" style="edgeStyle=orthogonalEdgeStyle;rounded=0;orthogonalLoop=1;jettySize=auto;html=1;entryX=0.75;entryY=1;entryDx=0;entryDy=0;" edge="1" parent="WIyWlLk6GJQsqaUBKTNV-1" source="xGRWOPdD0uSBS9Aoq_qe-61" target="xGRWOPdD0uSBS9Aoq_qe-22">
          <mxGeometry relative="1" as="geometry" />
        </mxCell>
        <mxCell id="xGRWOPdD0uSBS9Aoq_qe-69" style="edgeStyle=orthogonalEdgeStyle;rounded=0;orthogonalLoop=1;jettySize=auto;html=1;entryX=0;entryY=0.5;entryDx=0;entryDy=0;" edge="1" parent="WIyWlLk6GJQsqaUBKTNV-1" source="xGRWOPdD0uSBS9Aoq_qe-61" target="xGRWOPdD0uSBS9Aoq_qe-67">
          <mxGeometry relative="1" as="geometry" />
        </mxCell>
        <mxCell id="xGRWOPdD0uSBS9Aoq_qe-61" value="Was Vampire" style="rhombus;whiteSpace=wrap;html=1;" vertex="1" parent="WIyWlLk6GJQsqaUBKTNV-1">
          <mxGeometry x="430" y="710" width="80" height="80" as="geometry" />
        </mxCell>
        <mxCell id="xGRWOPdD0uSBS9Aoq_qe-62" value="True" style="text;html=1;align=center;verticalAlign=middle;whiteSpace=wrap;rounded=0;" vertex="1" parent="WIyWlLk6GJQsqaUBKTNV-1">
          <mxGeometry x="414" y="850" width="60" height="30" as="geometry" />
        </mxCell>
        <mxCell id="xGRWOPdD0uSBS9Aoq_qe-64" value="False, time expired" style="text;html=1;align=center;verticalAlign=middle;whiteSpace=wrap;rounded=0;" vertex="1" parent="WIyWlLk6GJQsqaUBKTNV-1">
          <mxGeometry x="340" y="790" width="60" height="30" as="geometry" />
        </mxCell>
        <mxCell id="xGRWOPdD0uSBS9Aoq_qe-66" value="False" style="text;html=1;align=center;verticalAlign=middle;whiteSpace=wrap;rounded=0;" vertex="1" parent="WIyWlLk6GJQsqaUBKTNV-1">
          <mxGeometry x="460" y="630" width="60" height="30" as="geometry" />
        </mxCell>
        <mxCell id="xGRWOPdD0uSBS9Aoq_qe-71" style="edgeStyle=orthogonalEdgeStyle;rounded=0;orthogonalLoop=1;jettySize=auto;html=1;entryX=1;entryY=0.5;entryDx=0;entryDy=0;" edge="1" parent="WIyWlLk6GJQsqaUBKTNV-1" source="xGRWOPdD0uSBS9Aoq_qe-67" target="xGRWOPdD0uSBS9Aoq_qe-24">
          <mxGeometry relative="1" as="geometry">
            <Array as="points">
              <mxPoint x="620" y="350" />
            </Array>
          </mxGeometry>
        </mxCell>
        <mxCell id="xGRWOPdD0uSBS9Aoq_qe-67" value="Score++" style="rounded=0;whiteSpace=wrap;html=1;" vertex="1" parent="WIyWlLk6GJQsqaUBKTNV-1">
          <mxGeometry x="560" y="720" width="120" height="60" as="geometry" />
        </mxCell>
        <mxCell id="xGRWOPdD0uSBS9Aoq_qe-68" value="Que mal! no era un vampiro" style="text;html=1;align=center;verticalAlign=middle;whiteSpace=wrap;rounded=0;" vertex="1" parent="WIyWlLk6GJQsqaUBKTNV-1">
          <mxGeometry x="400" y="630" width="60" height="30" as="geometry" />
        </mxCell>
        <mxCell id="xGRWOPdD0uSBS9Aoq_qe-70" value="Que suerte! era un vampiro!" style="text;html=1;align=center;verticalAlign=middle;whiteSpace=wrap;rounded=0;" vertex="1" parent="WIyWlLk6GJQsqaUBKTNV-1">
          <mxGeometry x="500" y="700" width="60" height="30" as="geometry" />
        </mxCell>
        <mxCell id="xGRWOPdD0uSBS9Aoq_qe-72" value="Esperar a que el jugador decida dejarlo ir, o matarlo" style="text;html=1;align=center;verticalAlign=middle;whiteSpace=wrap;rounded=0;" vertex="1" parent="WIyWlLk6GJQsqaUBKTNV-1">
          <mxGeometry x="405" y="900" width="170" height="30" as="geometry" />
        </mxCell>
        <mxCell id="xGRWOPdD0uSBS9Aoq_qe-74" value="Vampire Slain!" style="text;html=1;align=center;verticalAlign=middle;whiteSpace=wrap;rounded=0;" vertex="1" parent="WIyWlLk6GJQsqaUBKTNV-1">
          <mxGeometry x="330" y="980" width="60" height="30" as="geometry" />
        </mxCell>
      </root>
    </mxGraphModel>
  </diagram>
</mxfile>
